PathFileType	4	(X/Y/Z)	Kaydara																																																																																																																									
DataRate	CameraRate	NumFrames	NumMarkers	Units	OrigDataRate	OrigDataStartFrame	OrigNumFrames																																																																																																																					
30	30	4	41	mm	30	171	195																																																																																																																					
Frame#	Time	NABA_LFHD			NABA_RFHD			NABA_LBHD			NABA_RBHD			NABA_LFTShould			NABA_RFTShould			NABA_LRRShould			NABA_RRRShould			NABA_T10			NABA_STRN			NABA_TRUN			NABA_LSHO			NABA_LUPA			NABA_LELB			NABA_LFRM			NABA_LWRA			NABA_LWRB			NABA_LFIN			NABA_RSHO			NABA_RUPA			NABA_RELB			NABA_RFRM			NABA_RWRA			NABA_RWRB			NABA_RFIN			NABA_LFWT			NABA_RFWT			NABA_LBWT			NABA_RBWT			NABA_LTHI			NABA_LKNE			NABA_LSHN			NABA_LANK			NABA_LHEE			NABA_LTOE			NABA_RTHI			NABA_RKNE			NABA_RSHN			NABA_RANK			NABA_RHEE			NABA_RTOE		
		X1	Y1	Z1	X2	Y2	Z2	X3	Y3	Z3	X4	Y4	Z4	X5	Y5	Z5	X6	Y6	Z6	X7	Y7	Z7	X8	Y8	Z8	X9	Y9	Z9	X10	Y10	Z10	X11	Y11	Z11	X12	Y12	Z12	X13	Y13	Z13	X14	Y14	Z14	X15	Y15	Z15	X16	Y16	Z16	X17	Y17	Z17	X18	Y18	Z18	X19	Y19	Z19	X20	Y20	Z20	X21	Y21	Z21	X22	Y22	Z22	X23	Y23	Z23	X24	Y24	Z24	X25	Y25	Z25	X26	Y26	Z26	X27	Y27	Z27	X28	Y28	Z28	X29	Y29	Z29	X30	Y30	Z30	X31	Y31	Z31	X32	Y32	Z32	X33	Y33	Z33	X34	Y34	Z34	X35	Y35	Z35	X36	Y36	Z36	X37	Y37	Z37	X38	Y38	Z38	X39	Y39	Z39	X40	Y40	Z40	X41	Y41	Z41
																																																																																																																												
171	5.677	237.59462	1568.79272	1864.4426	69.04026	1550.27191	1895.43671	248.42577	1526.12595	1745.18433	32.50859	1523.28812	1803.93219	229.19481	1287.21024	1873.05771	94.57718	1285.9375	1875.5809	226.12068	1328.45169	1751.06888	75.33668	1328.90274	1760.6189	157.36074	1158.43506	1700.31677	163.17305	1240.69511	1928.49716	163.64944	1149.51225	1986.86096	325.8881	1299.82269	1813.67813	367.42493	1067.10236	1758.72421	383.74569	984.21028	1775.17197	373.27206	918.1424	1744.15665	347.97848	756.47476	1803.51501	416.64917	764.01886	1783.18588	405.58044	691.42349	1809.77097	-1.70367	1304.09119	1829.61624	-47.75946	1103.09616	1771.61011	-78.54662	981.68793	1820.3067	-80.86925	885.39894	1840.66223	-15.38901	777.50694	1943.01178	-89.4004	763.9772	1939.32007	-76.67406	734.67575	1975.96085	288.98787	908.08479	1926.72485	25.55767	891.88576	1911.96228	240.07063	971.856	1752.72598	76.12527	972.21153	1741.75323	298.11243	602.23034	1827.8656	281.14225	461.97559	1905.49179	214.51046	273.26883	1952.91534	237.08857	113.63029	1910.16296	179.90162	63.62047	1854.30084	193.8032	38.65976	2045.07141	32.65095	603.13454	1782.76825	24.61354	440.56305	1907.32452	43.14212	303.80651	1782.31613	45.66212	231.53423	1590.7045	104.81256	257.70111	1523.64258	62.81405	69.74385	1577.0311
172	5.71	238.79608	1571.97113	1904.83688	69.94542	1554.53384	1934.98764	250.11784	1529.15009	1785.89905	33.75474	1527.64343	1843.3075	228.87264	1290.15625	1912.64771	93.76863	1287.79877	1913.30841	228.05529	1332.77954	1789.24133	77.02769	1332.44965	1798.07053	161.99123	1163.59093	1737.51343	162.15298	1241.63124	1965.74066	162.01326	1149.83536	2022.90649	326.84856	1304.38416	1855.64163	374.67789	1068.59146	1809.43436	388.58082	986.31256	1828.81088	379.43481	918.32169	1800.37704	349.84337	760.15892	1867.66266	419.7036	766.31699	1849.97833	408.16154	696.43875	1881.12732	-1.42784	1305.91995	1865.13504	-46.81423	1106.32545	1802.88101	-77.22663	983.46687	1848.52844	-80.69679	887.30057	1863.09418	-15.98342	771.78757	1956.39496	-90.55933	759.52293	1952.97165	-76.55018	725.95398	1986.55334	291.41577	911.37207	1961.15936	27.72163	896.73492	1948.56903	242.44741	975.04738	1788.10837	77.96993	975.85854	1777.6889	298.37749	605.9182	1850.19943	281.11933	462.18945	1921.62354	214.04078	272.01984	1961.50238	236.22791	113.85638	1913.07465	178.8022	65.43795	1855.40192	193.44612	38.40926	2045.38193	35.73816	603.32191	1843.77472	30.39695	452.44648	1983.69965	46.85955	311.81183	1865.65567	45.70543	233.72829	1676.20392	105.57481	253.89946	1606.63666	50.0249	77.15666	1678.26324
173	5.743	239.31408	1573.55118	1945.5719	70.07726	1555.68237	1974.5665	250.97555	1532.76047	1825.85098	34.32995	1530.55023	1882.17178	228.56236	1292.22321	1950.25696	93.46328	1288.88626	1949.10675	229.80936	1336.39832	1827.80609	78.66014	1334.08157	1833.95035	166.11797	1166.56548	1773.42636	161.39452	1241.79253	2001.40579	160.8357	1150.06508	2058.20847	327.52308	1307.48795	1895.51727	380.76752	1068.3194	1859.77554	393.00751	987.22649	1883.66409	385.41439	917.28493	1858.64456	350.91217	763.04527	1932.93701	421.73096	768.47458	1920.47745	408.98605	702.38228	1956.55487	-1.11404	1305.91721	1899.0683	-44.35921	1107.74124	1832.02911	-75.96968	983.70064	1874.12857	-80.4303	887.76016	1883.73444	-17.28574	766.59691	1970.16861	-92.26083	755.36232	1966.37924	-77.43015	718.77838	1997.33063	295.45889	912.02339	1993.40836	31.74331	901.2751	1986.43188	241.92533	975.97824	1820.87845	77.47925	978.04794	1813.75214	297.09724	607.95559	1874.40231	279.63436	461.57616	1938.72009	212.17199	270.30315	1970.65018	234.46928	113.2587	1915.85968	177.19721	66.80183	1856.91391	193.15659	38.01898	2045.64667	36.21085	605.6004	1902.18994	38.14241	466.57429	2055.06042	51.50392	317.73664	1948.07236	45.5372	225.24349	1766.2677	104.40609	235.73414	1692.52914	46.33414	75.82191	1791.33072
174	5.777	239.37719	1573.34793	1985.77454	69.76443	1554.15192	2013.61649	251.38578	1535.26932	1865.26886	34.40239	1531.16211	1920.55649	228.93494	1292.85629	1986.20483	93.35751	1288.37814	1983.93738	231.2257	1337.26974	1863.56735	80.07341	1334.21494	1868.77472	169.04657	1167.5338	1807.14676	161.29715	1241.55396	2035.94315	160.83347	1149.92775	2092.57492	328.43639	1309.19876	1932.39426	385.24609	1068.09441	1909.55429	396.62601	988.3902	1938.58078	390.25764	916.52916	1918.00797	351.16367	766.6713	1998.52295	422.53242	772.27592	1992.23434	408.15704	710.35965	2033.26981	-0.50982	1305.17899	1932.33322	-40.69192	1108.86551	1860.25406	-73.93616	983.83354	1898.12805	-79.05843	888.0497	1903.05557	-19.3958	762.3925	1985.04852	-94.34054	752.13943	1978.88779	-80.12136	712.89703	2007.52777	298.54891	911.02432	2025.13428	34.72842	904.10126	2024.22394	240.71995	975.97176	1855.19318	76.26053	978.40073	1849.38431	295.13899	609.49501	1897.81479	278.39664	460.80643	1956.43967	210.69069	268.91205	1981.4505	233.08935	113.7217	1919.66431	175.21013	68.48913	1859.00391	192.91239	37.86579	2045.88257	33.02589	607.80315	1957.33231	46.8153	481.12347	2120.96558	57.34836	320.65125	2030.42297	46.30788	205.97044	1862.20932	103.15376	205.60658	1785.04501	45.60232	65.80657	1908.79593
